<svg width="155" height="41" viewBox="0 0 155 41" fill="none" xmlns="http://www.w3.org/2000/svg">
<path d="M4.96172 2.50857C4.96172 3.70857 4.06172 4.60857 2.86172 4.60857C1.66172 4.60857 0.761719 3.60857 0.761719 2.50857C0.761719 1.30857 1.66172 0.408569 2.86172 0.408569C3.96172 0.408569 4.96172 1.30857 4.96172 2.50857Z" fill="#146F3D"/>
<path d="M29.8621 2.50857C29.8621 3.70857 28.9621 4.60857 27.7621 4.60857C26.5621 4.60857 25.6621 3.70857 25.6621 2.50857C25.6621 1.30857 26.5621 0.408569 27.7621 0.408569C28.9621 0.408569 29.8621 1.30857 29.8621 2.50857Z" fill="#146F3D"/>
<path d="M54.7615 2.50857C54.7615 3.70857 53.8615 4.60857 52.6615 4.60857C51.4615 4.60857 50.5615 3.70857 50.5615 2.50857C50.5615 1.40857 51.4615 0.408569 52.6615 0.408569C53.8615 0.408569 54.7615 1.30857 54.7615 2.50857Z" fill="#146F3D"/>
<path d="M79.6619 2.50857C79.6619 3.70857 78.7619 4.60857 77.5619 4.60857C76.3619 4.60857 75.4619 3.70857 75.4619 2.50857C75.4619 1.40857 76.3619 0.408569 77.5619 0.408569C78.7619 0.408569 79.6619 1.30857 79.6619 2.50857Z" fill="#146F3D"/>
<path d="M104.561 2.50857C104.561 3.70857 103.661 4.60857 102.461 4.60857C101.261 4.60857 100.361 3.70857 100.361 2.50857C100.361 1.40857 101.261 0.408569 102.461 0.408569C103.661 0.408569 104.561 1.30857 104.561 2.50857Z" fill="#146F3D"/>
<path d="M129.561 2.50857C129.561 3.70857 128.661 4.60857 127.461 4.60857C126.261 4.60857 125.361 3.70857 125.361 2.50857C125.361 1.40857 126.261 0.408569 127.461 0.408569C128.561 0.408569 129.561 1.30857 129.561 2.50857Z" fill="#146F3D"/>
<path d="M154.462 2.50857C154.462 3.70857 153.562 4.60857 152.362 4.60857C151.162 4.60857 150.262 3.70857 150.262 2.50857C150.262 1.40857 151.162 0.408569 152.362 0.408569C153.462 0.408569 154.462 1.30857 154.462 2.50857Z" fill="#146F3D"/>
<path d="M4.96172 20.5086C4.96172 21.7086 4.06172 22.6086 2.86172 22.6086C1.66172 22.6086 0.761719 21.7086 0.761719 20.5086C0.761719 19.3086 1.66172 18.4086 2.86172 18.4086C3.96172 18.4086 4.96172 19.3086 4.96172 20.5086Z" fill="#146F3D"/>
<path d="M29.8621 20.5086C29.8621 21.7086 28.9621 22.6086 27.7621 22.6086C26.5621 22.6086 25.6621 21.7086 25.6621 20.5086C25.6621 19.4086 26.5621 18.4086 27.7621 18.4086C28.9621 18.4086 29.8621 19.3086 29.8621 20.5086Z" fill="#146F3D"/>
<path d="M54.7615 20.5086C54.7615 21.7086 53.8615 22.6086 52.6615 22.6086C51.4615 22.6086 50.5615 21.7086 50.5615 20.5086C50.5615 19.4086 51.4615 18.4086 52.6615 18.4086C53.8615 18.4086 54.7615 19.3086 54.7615 20.5086Z" fill="#146F3D"/>
<path d="M79.6619 20.5086C79.6619 21.7086 78.7619 22.6086 77.5619 22.6086C76.3619 22.6086 75.4619 21.7086 75.4619 20.5086C75.4619 19.4086 76.3619 18.4086 77.5619 18.4086C78.7619 18.4086 79.6619 19.3086 79.6619 20.5086Z" fill="#146F3D"/>
<path d="M104.561 20.5086C104.561 21.7086 103.661 22.6086 102.461 22.6086C101.261 22.6086 100.361 21.7086 100.361 20.5086C100.361 19.4086 101.261 18.4086 102.461 18.4086C103.661 18.4086 104.561 19.3086 104.561 20.5086Z" fill="#146F3D"/>
<path d="M129.561 20.5086C129.561 21.7086 128.661 22.6086 127.461 22.6086C126.261 22.6086 125.361 21.7086 125.361 20.5086C125.361 19.4086 126.261 18.4086 127.461 18.4086C128.561 18.4086 129.561 19.3086 129.561 20.5086Z" fill="#146F3D"/>
<path d="M154.462 20.5086C154.462 21.7086 153.562 22.6086 152.362 22.6086C151.162 22.6086 150.262 21.7086 150.262 20.5086C150.262 19.4086 151.162 18.4086 152.362 18.4086C153.462 18.4086 154.462 19.3086 154.462 20.5086Z" fill="#146F3D"/>
<path d="M4.96172 38.5086C4.96172 39.7086 4.06172 40.6086 2.86172 40.6086C1.66172 40.6086 0.761719 39.7086 0.761719 38.5086C0.761719 37.3086 1.66172 36.4086 2.86172 36.4086C3.96172 36.4086 4.96172 37.3086 4.96172 38.5086Z" fill="#146F3D"/>
<path d="M29.8621 38.5086C29.8621 39.7086 28.9621 40.6086 27.7621 40.6086C26.5621 40.6086 25.6621 39.7086 25.6621 38.5086C25.6621 37.4086 26.5621 36.4086 27.7621 36.4086C28.9621 36.4086 29.8621 37.3086 29.8621 38.5086Z" fill="#146F3D"/>
<path d="M54.7615 38.5086C54.7615 39.7086 53.8615 40.6086 52.6615 40.6086C51.4615 40.6086 50.5615 39.7086 50.5615 38.5086C50.5615 37.4086 51.4615 36.4086 52.6615 36.4086C53.8615 36.4086 54.7615 37.3086 54.7615 38.5086Z" fill="#146F3D"/>
<path d="M79.6619 38.5086C79.6619 39.7086 78.7619 40.6086 77.5619 40.6086C76.3619 40.6086 75.4619 39.7086 75.4619 38.5086C75.4619 37.4086 76.3619 36.4086 77.5619 36.4086C78.7619 36.4086 79.6619 37.3086 79.6619 38.5086Z" fill="#146F3D"/>
<path d="M104.561 38.5086C104.561 39.7086 103.661 40.6086 102.461 40.6086C101.261 40.6086 100.361 39.7086 100.361 38.5086C100.361 37.4086 101.261 36.4086 102.461 36.4086C103.661 36.4086 104.561 37.3086 104.561 38.5086Z" fill="#146F3D"/>
<path d="M129.561 38.5086C129.561 39.7086 128.661 40.6086 127.461 40.6086C126.261 40.6086 125.361 39.7086 125.361 38.5086C125.361 37.4086 126.261 36.4086 127.461 36.4086C128.561 36.4086 129.561 37.3086 129.561 38.5086Z" fill="#146F3D"/>
<path d="M154.462 38.5086C154.462 39.7086 153.562 40.6086 152.362 40.6086C151.162 40.6086 150.262 39.7086 150.262 38.5086C150.262 37.4086 151.162 36.4086 152.362 36.4086C153.462 36.4086 154.462 37.3086 154.462 38.5086Z" fill="#146F3D"/>
</svg>
