<svg width="171" height="340" viewBox="0 0 171 340" fill="none" xmlns="http://www.w3.org/2000/svg">
<path d="M1.85254 91.0736C45.341 90.6544 80.8155 126.023 81.2387 169.929C81.6632 213.967 46.7452 249.882 3.3873 250.3" stroke="#D7D7D7" stroke-miterlimit="10"/>
<path d="M1.78125 83.6677C49.1876 83.2108 88.0895 121.852 88.5522 169.858C89.0149 217.864 50.8651 257.249 3.45878 257.705" stroke="#D7D7D7" stroke-miterlimit="10"/>
<path d="M1.71094 76.3941C53.1658 75.8981 95.3631 117.682 95.8666 169.92C96.3676 221.893 54.9848 264.615 3.52996 265.111" stroke="#D7D7D7" stroke-miterlimit="10"/>
<path d="M1.63965 68.9882C57.143 68.4532 102.506 113.513 103.048 169.719C103.59 225.924 59.1047 271.982 3.60144 272.517" stroke="#D7D7D7" stroke-miterlimit="10"/>
<path d="M1.56836 61.5834C61.1201 61.0094 109.78 109.344 110.362 169.649C110.943 229.954 63.2234 279.218 3.67165 279.792" stroke="#D7D7D7" stroke-miterlimit="10"/>
<path d="M1.49707 54.1774C64.9667 53.5657 117.054 105.174 117.675 169.579C118.296 233.983 67.2128 286.586 3.74313 287.198" stroke="#D7D7D7" stroke-miterlimit="10"/>
<path d="M1.42676 46.9037C68.9449 46.2529 124.329 101.136 124.99 169.64C125.649 238.012 71.4643 294.084 3.81558 294.736" stroke="#D7D7D7" stroke-miterlimit="10"/>
<path d="M1.35547 39.4977C72.9221 38.8079 131.473 96.9669 132.171 169.439C132.87 241.91 75.4511 301.187 3.88451 301.877" stroke="#D7D7D7" stroke-miterlimit="10"/>
<path d="M1.28418 32.0917C76.8993 31.3628 138.747 92.7965 139.485 169.368C140.223 245.939 79.5711 308.554 3.95599 309.283" stroke="#D7D7D7" stroke-miterlimit="10"/>
<path d="M1.21289 24.6857C80.8765 23.9179 146.021 88.6263 146.798 169.297C147.576 249.968 83.691 315.92 4.02747 316.688" stroke="#D7D7D7" stroke-miterlimit="10"/>
<path d="M1.14062 17.1475C84.8527 16.3406 153.425 84.4547 154.243 169.225C155.06 253.996 87.8126 323.419 4.10053 324.226" stroke="#D7D7D7" stroke-miterlimit="10"/>
<path d="M1.07129 10.006C88.7012 9.16133 160.439 80.4192 161.294 169.157C162.15 257.895 91.7988 330.523 4.16886 331.368" stroke="#D7D7D7" stroke-miterlimit="10"/>
<path d="M1.00098 2.59998C92.6794 1.7163 167.714 76.2489 168.609 169.087C169.504 261.924 95.9197 337.89 4.24132 338.773" stroke="#D7D7D7" stroke-miterlimit="10"/>
</svg>
