<svg width="41" height="155" viewBox="0 0 41 155" fill="none" xmlns="http://www.w3.org/2000/svg">
<path d="M2.09902 149.923C3.29902 149.923 4.19902 150.823 4.19902 152.023C4.19902 153.223 3.19902 154.123 2.09902 154.123C0.899023 154.123 -0.000976602 153.223 -0.000976654 152.023C-0.000976702 150.923 0.899023 149.923 2.09902 149.923Z" fill="#DA4E49"/>
<path d="M2.09902 125.023C3.29902 125.023 4.19902 125.923 4.19902 127.123C4.19902 128.323 3.29902 129.223 2.09902 129.223C0.899023 129.223 -0.000976602 128.323 -0.000976654 127.123C-0.000976707 125.923 0.899023 125.023 2.09902 125.023Z" fill="#DA4E49"/>
<path d="M2.09902 100.123C3.29902 100.123 4.19902 101.023 4.19902 102.223C4.19902 103.423 3.29902 104.323 2.09902 104.323C0.999023 104.323 -0.000976602 103.423 -0.000976654 102.223C-0.000976707 101.023 0.899023 100.123 2.09902 100.123Z" fill="#DA4E49"/>
<path d="M2.09902 75.2228C3.29902 75.2228 4.19902 76.1228 4.19902 77.3228C4.19902 78.5228 3.29902 79.4229 2.09902 79.4229C0.999023 79.4229 -0.000976602 78.5228 -0.000976654 77.3228C-0.000976707 76.1228 0.899023 75.2228 2.09902 75.2228Z" fill="#DA4E49"/>
<path d="M2.09902 50.3228C3.29902 50.3228 4.19902 51.2228 4.19902 52.4228C4.19902 53.6228 3.29902 54.5228 2.09902 54.5228C0.999023 54.5228 -0.000976602 53.6228 -0.000976654 52.4228C-0.000976707 51.2228 0.899023 50.3228 2.09902 50.3228Z" fill="#DA4E49"/>
<path d="M2.09902 25.3228C3.29902 25.3228 4.19902 26.2228 4.19902 27.4228C4.19902 28.6228 3.29902 29.5228 2.09902 29.5228C0.999023 29.5228 -0.000976602 28.6228 -0.000976654 27.4228C-0.000976702 26.3228 0.899023 25.3228 2.09902 25.3228Z" fill="#DA4E49"/>
<path d="M2.09902 0.422806C3.29902 0.422806 4.19902 1.3228 4.19902 2.5228C4.19902 3.7228 3.29902 4.6228 2.09902 4.6228C0.999023 4.6228 -0.000976602 3.7228 -0.000976654 2.5228C-0.000976702 1.4228 0.899023 0.422806 2.09902 0.422806Z" fill="#DA4E49"/>
<path d="M20.099 149.923C21.299 149.923 22.199 150.823 22.199 152.023C22.199 153.223 21.299 154.123 20.099 154.123C18.899 154.123 17.999 153.223 17.999 152.023C17.999 150.923 18.899 149.923 20.099 149.923Z" fill="#DA4E49"/>
<path d="M20.099 125.023C21.299 125.023 22.199 125.923 22.199 127.123C22.199 128.323 21.299 129.223 20.099 129.223C18.999 129.223 17.999 128.323 17.999 127.123C17.999 125.923 18.899 125.023 20.099 125.023Z" fill="#DA4E49"/>
<path d="M20.099 100.123C21.299 100.123 22.199 101.023 22.199 102.223C22.199 103.423 21.299 104.323 20.099 104.323C18.999 104.323 17.999 103.423 17.999 102.223C17.999 101.023 18.899 100.123 20.099 100.123Z" fill="#DA4E49"/>
<path d="M20.099 75.2228C21.299 75.2228 22.199 76.1228 22.199 77.3228C22.199 78.5228 21.299 79.4229 20.099 79.4229C18.999 79.4229 17.999 78.5228 17.999 77.3228C17.999 76.1228 18.899 75.2228 20.099 75.2228Z" fill="#DA4E49"/>
<path d="M20.099 50.3228C21.299 50.3228 22.199 51.2228 22.199 52.4228C22.199 53.6228 21.299 54.5228 20.099 54.5228C18.999 54.5228 17.999 53.6228 17.999 52.4228C17.999 51.2228 18.899 50.3228 20.099 50.3228Z" fill="#DA4E49"/>
<path d="M20.099 25.3228C21.299 25.3228 22.199 26.2228 22.199 27.4228C22.199 28.6228 21.299 29.5228 20.099 29.5228C18.999 29.5228 17.999 28.6228 17.999 27.4228C17.999 26.3228 18.899 25.3228 20.099 25.3228Z" fill="#DA4E49"/>
<path d="M20.099 0.422806C21.299 0.422806 22.199 1.3228 22.199 2.5228C22.199 3.7228 21.299 4.6228 20.099 4.6228C18.999 4.6228 17.999 3.7228 17.999 2.5228C17.999 1.4228 18.899 0.422806 20.099 0.422806Z" fill="#DA4E49"/>
<path d="M38.099 149.923C39.299 149.923 40.199 150.823 40.199 152.023C40.199 153.223 39.299 154.123 38.099 154.123C36.899 154.123 35.999 153.223 35.999 152.023C35.999 150.923 36.899 149.923 38.099 149.923Z" fill="#DA4E49"/>
<path d="M38.099 125.023C39.299 125.023 40.199 125.923 40.199 127.123C40.199 128.323 39.299 129.223 38.099 129.223C36.999 129.223 35.999 128.323 35.999 127.123C35.999 125.923 36.899 125.023 38.099 125.023Z" fill="#DA4E49"/>
<path d="M38.099 100.123C39.299 100.123 40.199 101.023 40.199 102.223C40.199 103.423 39.299 104.323 38.099 104.323C36.999 104.323 35.999 103.423 35.999 102.223C35.999 101.023 36.899 100.123 38.099 100.123Z" fill="#DA4E49"/>
<path d="M38.099 75.2228C39.299 75.2228 40.199 76.1228 40.199 77.3228C40.199 78.5228 39.299 79.4229 38.099 79.4229C36.999 79.4229 35.999 78.5228 35.999 77.3228C35.999 76.1228 36.899 75.2228 38.099 75.2228Z" fill="#DA4E49"/>
<path d="M38.099 50.3228C39.299 50.3228 40.199 51.2228 40.199 52.4228C40.199 53.6228 39.299 54.5228 38.099 54.5228C36.999 54.5228 35.999 53.6228 35.999 52.4228C35.999 51.2228 36.899 50.3228 38.099 50.3228Z" fill="#DA4E49"/>
<path d="M38.099 25.3228C39.299 25.3228 40.199 26.2228 40.199 27.4228C40.199 28.6228 39.299 29.5228 38.099 29.5228C36.999 29.5228 35.999 28.6228 35.999 27.4228C35.999 26.3228 36.899 25.3228 38.099 25.3228Z" fill="#DA4E49"/>
<path d="M38.099 0.422806C39.299 0.422806 40.199 1.3228 40.199 2.5228C40.199 3.7228 39.299 4.6228 38.099 4.6228C36.999 4.6228 35.999 3.7228 35.999 2.5228C35.999 1.4228 36.899 0.422806 38.099 0.422806Z" fill="#DA4E49"/>
</svg>
