<svg width="41" height="155" viewBox="0 0 41 155" fill="none" xmlns="http://www.w3.org/2000/svg">
<path d="M2.39297 150.223C3.59297 150.223 4.49297 151.123 4.49297 152.323C4.49297 153.523 3.49297 154.423 2.39297 154.423C1.19297 154.423 0.292969 153.523 0.292969 152.323C0.292969 151.223 1.19297 150.223 2.39297 150.223Z" fill="#217848"/>
<path d="M2.39297 125.323C3.59297 125.323 4.49297 126.223 4.49297 127.423C4.49297 128.623 3.59297 129.523 2.39297 129.523C1.19297 129.523 0.292969 128.623 0.292969 127.423C0.292969 126.223 1.19297 125.323 2.39297 125.323Z" fill="#217848"/>
<path d="M2.39297 100.423C3.59297 100.423 4.49297 101.323 4.49297 102.523C4.49297 103.723 3.59297 104.623 2.39297 104.623C1.29297 104.623 0.292969 103.723 0.292969 102.523C0.292969 101.323 1.19297 100.423 2.39297 100.423Z" fill="#217848"/>
<path d="M2.39297 75.5227C3.59297 75.5227 4.49297 76.4226 4.49297 77.6226C4.49297 78.8227 3.59297 79.7227 2.39297 79.7227C1.29297 79.7227 0.292969 78.8227 0.292969 77.6227C0.292969 76.4227 1.19297 75.5227 2.39297 75.5227Z" fill="#217848"/>
<path d="M2.39297 50.6226C3.59297 50.6226 4.49297 51.5226 4.49297 52.7226C4.49297 53.9226 3.59297 54.8226 2.39297 54.8226C1.29297 54.8226 0.292969 53.9226 0.292969 52.7226C0.292969 51.5226 1.19297 50.6226 2.39297 50.6226Z" fill="#217848"/>
<path d="M2.39297 25.6226C3.59297 25.6226 4.49297 26.5226 4.49297 27.7226C4.49297 28.9226 3.59297 29.8226 2.39297 29.8226C1.29297 29.8226 0.292969 28.9226 0.292969 27.7226C0.292969 26.6226 1.19297 25.6226 2.39297 25.6226Z" fill="#217848"/>
<path d="M2.39297 0.72261C3.59297 0.72261 4.49297 1.6226 4.49297 2.8226C4.49297 4.0226 3.59297 4.92261 2.39297 4.92261C1.29297 4.92261 0.292969 4.0226 0.292969 2.8226C0.292969 1.7226 1.19297 0.72261 2.39297 0.72261Z" fill="#217848"/>
<path d="M20.393 150.223C21.593 150.223 22.493 151.123 22.493 152.323C22.493 153.523 21.593 154.423 20.393 154.423C19.193 154.423 18.293 153.523 18.293 152.323C18.293 151.223 19.193 150.223 20.393 150.223Z" fill="#217848"/>
<path d="M20.393 125.323C21.593 125.323 22.493 126.223 22.493 127.423C22.493 128.623 21.593 129.523 20.393 129.523C19.293 129.523 18.293 128.623 18.293 127.423C18.293 126.223 19.193 125.323 20.393 125.323Z" fill="#217848"/>
<path d="M20.393 100.423C21.593 100.423 22.493 101.323 22.493 102.523C22.493 103.723 21.593 104.623 20.393 104.623C19.293 104.623 18.293 103.723 18.293 102.523C18.293 101.323 19.193 100.423 20.393 100.423Z" fill="#217848"/>
<path d="M20.393 75.5227C21.593 75.5227 22.493 76.4226 22.493 77.6226C22.493 78.8227 21.593 79.7227 20.393 79.7227C19.293 79.7227 18.293 78.8227 18.293 77.6227C18.293 76.4227 19.193 75.5227 20.393 75.5227Z" fill="#217848"/>
<path d="M20.393 50.6226C21.593 50.6226 22.493 51.5226 22.493 52.7226C22.493 53.9226 21.593 54.8226 20.393 54.8226C19.293 54.8226 18.293 53.9226 18.293 52.7226C18.293 51.5226 19.193 50.6226 20.393 50.6226Z" fill="#217848"/>
<path d="M20.393 25.6226C21.593 25.6226 22.493 26.5226 22.493 27.7226C22.493 28.9226 21.593 29.8226 20.393 29.8226C19.293 29.8226 18.293 28.9226 18.293 27.7226C18.293 26.6226 19.193 25.6226 20.393 25.6226Z" fill="#217848"/>
<path d="M20.393 0.72261C21.593 0.72261 22.493 1.6226 22.493 2.8226C22.493 4.0226 21.593 4.92261 20.393 4.92261C19.293 4.92261 18.293 4.0226 18.293 2.8226C18.293 1.7226 19.193 0.72261 20.393 0.72261Z" fill="#217848"/>
<path d="M38.393 150.223C39.593 150.223 40.493 151.123 40.493 152.323C40.493 153.523 39.593 154.423 38.393 154.423C37.193 154.423 36.293 153.523 36.293 152.323C36.293 151.223 37.193 150.223 38.393 150.223Z" fill="#217848"/>
<path d="M38.393 125.323C39.593 125.323 40.493 126.223 40.493 127.423C40.493 128.623 39.593 129.523 38.393 129.523C37.293 129.523 36.293 128.623 36.293 127.423C36.293 126.223 37.193 125.323 38.393 125.323Z" fill="#217848"/>
<path d="M38.393 100.423C39.593 100.423 40.493 101.323 40.493 102.523C40.493 103.723 39.593 104.623 38.393 104.623C37.293 104.623 36.293 103.723 36.293 102.523C36.293 101.323 37.193 100.423 38.393 100.423Z" fill="#217848"/>
<path d="M38.393 75.5227C39.593 75.5227 40.493 76.4226 40.493 77.6226C40.493 78.8227 39.593 79.7227 38.393 79.7227C37.293 79.7227 36.293 78.8227 36.293 77.6227C36.293 76.4227 37.193 75.5227 38.393 75.5227Z" fill="#217848"/>
<path d="M38.393 50.6226C39.593 50.6226 40.493 51.5226 40.493 52.7226C40.493 53.9226 39.593 54.8226 38.393 54.8226C37.293 54.8226 36.293 53.9226 36.293 52.7226C36.293 51.5226 37.193 50.6226 38.393 50.6226Z" fill="#217848"/>
<path d="M38.393 25.6226C39.593 25.6226 40.493 26.5226 40.493 27.7226C40.493 28.9226 39.593 29.8226 38.393 29.8226C37.293 29.8226 36.293 28.9226 36.293 27.7226C36.293 26.6226 37.193 25.6226 38.393 25.6226Z" fill="#217848"/>
<path d="M38.393 0.72261C39.593 0.72261 40.493 1.6226 40.493 2.8226C40.493 4.0226 39.593 4.92261 38.393 4.92261C37.293 4.92261 36.293 4.0226 36.293 2.8226C36.293 1.7226 37.193 0.72261 38.393 0.72261Z" fill="#217848"/>
</svg>
