<svg width="182" height="85" viewBox="0 0 182 85" fill="none" xmlns="http://www.w3.org/2000/svg">
<path d="M41.0863 48.1466C41.5442 47.8032 41.8647 47.3224 42.025 46.6814L43.2384 46.9332C43.0323 47.849 42.5744 48.5587 41.8876 49.0624C41.2008 49.589 40.3766 49.8408 39.4379 49.8408C38.2932 49.8408 37.3316 49.4516 36.5303 48.6503C35.729 47.8719 35.3398 46.8874 35.3398 45.7427C35.3398 44.598 35.729 43.6365 36.5303 42.8352C37.3316 42.0339 38.2932 41.6447 39.4379 41.6447C40.3766 41.6447 41.1779 41.8965 41.8647 42.4002C42.5515 42.9038 43.0094 43.5907 43.2384 44.4607L42.025 44.8041C41.8418 44.163 41.5442 43.6594 41.0863 43.3388C40.6284 42.9954 40.079 42.8352 39.4379 42.8352C38.6366 42.8352 37.9727 43.1099 37.4232 43.6822C36.8738 44.2317 36.599 44.9414 36.599 45.7427C36.599 46.5669 36.8738 47.2538 37.4232 47.8032C37.9727 48.3527 38.6366 48.6503 39.4379 48.6503C40.079 48.6503 40.6284 48.4672 41.0863 48.1466Z" fill="#344E3E"/>
<path d="M51.8465 42.8352C52.6478 43.6365 53.037 44.598 53.037 45.7427C53.037 46.8874 52.6478 47.849 51.8465 48.6274C51.0452 49.4058 50.0836 49.8179 48.9389 49.8179C47.7942 49.8179 46.8326 49.4287 46.0313 48.6274C45.2529 47.849 44.8408 46.8646 44.8408 45.7427C44.8408 44.598 45.23 43.6136 46.0313 42.8352C46.8326 42.0568 47.7942 41.6447 48.9389 41.6447C50.0836 41.6447 51.0452 42.0568 51.8465 42.8352ZM50.9536 47.8032C51.5031 47.2538 51.7778 46.5669 51.7778 45.7427C51.7778 44.9185 51.5031 44.2317 50.9536 43.6594C50.4041 43.1099 49.7402 42.8123 48.9389 42.8123C48.1376 42.8123 47.4737 43.087 46.9242 43.6594C46.3747 44.2088 46.1 44.9185 46.1 45.7427C46.1 46.5669 46.3747 47.2538 46.9242 47.8032C47.4737 48.3527 48.1376 48.6274 48.9389 48.6274C49.7173 48.6503 50.4041 48.3756 50.9536 47.8032Z" fill="#344E3E"/>
<path d="M62.0348 49.6575H60.9817L56.2426 44.0256V49.6575H54.9834V41.8048H56.0594L60.7985 47.5284V41.8048H62.0577V49.6575H62.0348Z" fill="#344E3E"/>
<path d="M69.1093 42.2399C69.6588 42.6291 70.0022 43.1785 70.1396 43.8653L68.8804 44.1172C68.8117 43.7051 68.6057 43.3617 68.2851 43.1098C67.9646 42.858 67.5525 42.7206 67.0946 42.7206C66.6367 42.7206 66.2704 42.8351 65.9728 43.064C65.6981 43.293 65.5607 43.5677 65.5607 43.934C65.5607 44.2088 65.6294 44.4148 65.7897 44.5751C65.9499 44.7353 66.2018 44.8498 66.5452 44.9185L68.2393 45.2848C69.5901 45.5824 70.254 46.2921 70.254 47.4369C70.254 48.1695 69.9793 48.7647 69.4298 49.1997C68.8804 49.6347 68.1478 49.8408 67.2549 49.8408C66.3849 49.8408 65.6523 49.6347 65.057 49.2226C64.4618 48.8105 64.1184 48.2382 64.0039 47.5055L65.3318 47.2308C65.4233 47.7116 65.6523 48.1008 66.0186 48.3526C66.3849 48.6045 66.8199 48.7418 67.3694 48.7418C67.8959 48.7418 68.2851 48.6274 68.5828 48.3984C68.8804 48.1695 69.0178 47.8718 69.0178 47.5055C69.0178 47.2079 68.9262 46.979 68.7659 46.8187C68.6057 46.6584 68.308 46.544 67.9188 46.4524L66.2018 46.109C64.8739 45.8114 64.2328 45.1016 64.2328 43.9798C64.2328 43.293 64.5076 42.7206 65.0341 42.3085C65.5607 41.8735 66.2475 41.6675 67.1175 41.6675C67.8959 41.6446 68.5599 41.8506 69.1093 42.2399Z" fill="#344E3E"/>
<path d="M78.8387 42.8352C79.64 43.6365 80.0292 44.598 80.0292 45.7427C80.0292 46.8875 79.64 47.849 78.8387 48.6274C78.0374 49.4058 77.0758 49.8179 75.9311 49.8179C74.7864 49.8179 73.8248 49.4287 73.0235 48.6274C72.2451 47.849 71.833 46.8646 71.833 45.7427C71.833 44.598 72.2222 43.6136 73.0235 42.8352C73.8248 42.0568 74.7864 41.6447 75.9311 41.6447C77.0758 41.6447 78.0374 42.0568 78.8387 42.8352ZM77.9458 47.8032C78.4952 47.2538 78.77 46.5669 78.77 45.7427C78.77 44.9185 78.4952 44.2317 77.9458 43.6594C77.3963 43.1099 76.7324 42.8123 75.9311 42.8123C75.1298 42.8123 74.4659 43.087 73.9164 43.6594C73.3669 44.2088 73.0922 44.9185 73.0922 45.7427C73.0922 46.5669 73.3669 47.2538 73.9164 47.8032C74.4659 48.3527 75.1298 48.6274 75.9311 48.6274C76.7095 48.6503 77.3963 48.3756 77.9458 47.8032ZM75.4503 40.9807L76.2974 39.3094H77.7168L76.4806 40.9807H75.4503Z" fill="#344E3E"/>
<path d="M87.1501 49.6575L84.357 46.521H83.2123V49.6575H81.9531V41.8048H85.6391C86.4404 41.8048 87.1043 42.0109 87.5851 42.4458C88.0659 42.8808 88.3406 43.4532 88.3406 44.1629C88.3406 44.8269 88.1117 45.3763 87.6767 45.8113C87.2417 46.2463 86.6236 46.4752 85.868 46.4981L88.7069 49.6347H87.1501V49.6575ZM85.662 45.3992C86.097 45.3992 86.4404 45.2847 86.7151 45.0558C86.9899 44.8269 87.1043 44.5292 87.1043 44.1629C87.1043 43.7966 86.967 43.499 86.7151 43.27C86.4404 43.0411 86.097 42.9266 85.662 42.9266H83.2352V45.3763H85.662V45.3992Z" fill="#344E3E"/>
<path d="M95.5521 48.1466C96.01 47.8032 96.3305 47.3224 96.4908 46.6814L97.7042 46.9332C97.4981 47.849 97.0403 48.5587 96.3534 49.0624C95.6666 49.589 94.8424 49.8408 93.9037 49.8408C92.759 49.8408 91.7975 49.4516 90.9962 48.6503C90.1949 47.8719 89.8057 46.8874 89.8057 45.7427C89.8057 44.598 90.1949 43.6365 90.9962 42.8352C91.7975 42.0339 92.759 41.6447 93.9037 41.6447C94.8424 41.6447 95.6437 41.8965 96.3305 42.4002C97.0174 42.9038 97.4752 43.5907 97.7042 44.4607L96.4908 44.8041C96.3076 44.163 96.01 43.6594 95.5521 43.3388C95.0942 42.9954 94.5448 42.8352 93.9037 42.8352C93.1024 42.8352 92.4385 43.1099 91.889 43.6822C91.3396 44.2317 91.0648 44.9414 91.0648 45.7427C91.0648 46.5669 91.3396 47.2538 91.889 47.8032C92.4385 48.3527 93.1024 48.6503 93.9037 48.6503C94.5448 48.6503 95.0942 48.4672 95.5521 48.1466Z" fill="#344E3E"/>
<path d="M101.848 48.5357H103.565V49.6804H98.8486V48.5357H100.566V42.9495H98.8486V41.8048H103.565V42.9495H101.848V48.5357Z" fill="#344E3E"/>
<path d="M111.715 42.8352C112.516 43.6365 112.905 44.598 112.905 45.7427C112.905 46.8874 112.516 47.849 111.715 48.6274C110.913 49.4058 109.952 49.8179 108.807 49.8179C107.662 49.8179 106.701 49.4287 105.899 48.6274C105.121 47.849 104.709 46.8646 104.709 45.7427C104.709 44.598 105.098 43.6136 105.899 42.8352C106.678 42.0339 107.662 41.6447 108.807 41.6447C109.952 41.6447 110.936 42.0568 111.715 42.8352ZM110.822 47.8032C111.371 47.2538 111.646 46.5669 111.646 45.7427C111.646 44.9185 111.371 44.2317 110.822 43.6594C110.272 43.1099 109.608 42.8123 108.807 42.8123C108.006 42.8123 107.342 43.087 106.792 43.6594C106.243 44.2088 105.968 44.9185 105.968 45.7427C105.968 46.5669 106.243 47.2538 106.792 47.8032C107.342 48.3527 108.006 48.6274 108.807 48.6274C109.608 48.6503 110.272 48.3756 110.822 47.8032Z" fill="#344E3E"/>
<path d="M119.591 42.2399C120.14 42.6291 120.484 43.1785 120.621 43.8653L119.362 44.1172C119.293 43.7051 119.087 43.3617 118.767 43.1098C118.446 42.858 118.034 42.7206 117.576 42.7206C117.118 42.7206 116.752 42.8351 116.454 43.064C116.18 43.293 116.042 43.5677 116.042 43.934C116.042 44.2088 116.111 44.4148 116.271 44.5751C116.431 44.7353 116.683 44.8498 117.027 44.9185L118.721 45.2848C120.072 45.5824 120.735 46.2921 120.735 47.4369C120.735 48.1695 120.461 48.7647 119.911 49.1997C119.362 49.6347 118.629 49.8408 117.736 49.8408C116.866 49.8408 116.134 49.6347 115.538 49.2226C114.943 48.8105 114.6 48.2382 114.485 47.5055L115.813 47.2308C115.905 47.7116 116.134 48.1008 116.5 48.3526C116.866 48.6045 117.301 48.7418 117.851 48.7418C118.377 48.7418 118.767 48.6274 119.064 48.3984C119.362 48.1695 119.499 47.8718 119.499 47.5055C119.499 47.2079 119.408 46.979 119.247 46.8187C119.087 46.6584 118.789 46.544 118.4 46.4524L116.683 46.109C115.355 45.8114 114.714 45.1016 114.714 43.9798C114.714 43.293 114.989 42.7206 115.516 42.3085C116.042 41.8735 116.729 41.6675 117.599 41.6675C118.377 41.6446 119.064 41.8506 119.591 42.2399Z" fill="#344E3E"/>
<path d="M19.1299 36.425V19.5748C19.1299 19.3688 19.2901 19.2085 19.4733 19.2085H26.7995C29.7299 19.2085 32.3399 21.4979 32.3399 25.0236C32.3399 28.5723 29.7528 30.8388 26.7995 30.8388H23.5027V36.4021C23.5027 36.9287 22.4267 36.9287 21.3277 36.9287C20.2288 36.9287 19.1299 36.9287 19.1299 36.425ZM27.7381 25.0236C27.7381 24.1537 27.0284 23.421 26.1584 23.421H23.5027V26.6033H26.1584C27.0284 26.6033 27.7381 25.8936 27.7381 25.0236Z" fill="#344E3E"/>
<path d="M33.415 28.0227C33.415 23.0088 37.5131 18.9565 42.5728 18.9565C47.6324 18.9565 51.7305 23.0088 51.7305 28.0227C51.7305 33.0365 47.6324 37.0888 42.5728 37.0888C37.5131 37.0888 33.415 33.0365 33.415 28.0227ZM46.9685 28.0227C46.9685 25.4356 45.0682 23.4209 42.5499 23.4209C40.0315 23.4209 38.1313 25.4356 38.1313 28.0227C38.1313 30.6097 40.0315 32.6473 42.5499 32.6473C45.0911 32.6244 46.9685 30.5868 46.9685 28.0227Z" fill="#344E3E"/>
<path d="M54.501 36.425V19.5748C54.501 19.3688 54.6612 19.2085 54.8444 19.2085H62.1706C65.101 19.2085 67.711 21.4979 67.711 25.0236C67.711 27.2215 66.6578 28.9615 65.1468 29.8772L68.5581 36.2876C68.6039 36.3563 68.6267 36.4479 68.6267 36.4937C68.6267 36.9516 67.6194 36.9516 66.6121 36.9516C65.4444 36.9516 64.2997 36.9516 64.0937 36.5624L61.209 30.8159H58.8738V36.425C58.8738 36.9287 57.7749 36.9516 56.6759 36.9516C55.577 36.9516 54.501 36.9287 54.501 36.425ZM63.0863 25.0236C63.0863 24.1537 62.3766 23.421 61.5066 23.421H58.8509V26.6033H61.5066C62.3995 26.6033 63.0863 25.8936 63.0863 25.0236Z" fill="#344E3E"/>
<path d="M74.1214 36.425V23.4439H69.4509C68.9473 23.4439 68.9473 22.3908 68.9473 21.3148C68.9473 20.2616 68.9473 19.2085 69.4738 19.2085H83.1646C83.6912 19.2085 83.6912 20.2616 83.6912 21.3148C83.6912 22.3908 83.6912 23.4439 83.1646 23.4439H78.4942V36.4021C78.4942 36.9287 77.3953 36.9287 76.2963 36.9287C75.2203 36.9287 74.1214 36.9287 74.1214 36.425Z" fill="#344E3E"/>
<path d="M80.4404 36.4478C80.4404 36.402 80.4633 36.3333 80.4862 36.2646L88.6595 19.1626C88.7968 18.9108 89.0945 18.9108 89.415 18.9108C89.7355 18.9108 90.0331 18.9108 90.1705 19.1626L98.3667 36.2646C98.4124 36.3333 98.4124 36.402 98.4124 36.4478C98.4124 36.9057 97.3135 36.9286 96.2146 36.9286C94.9783 36.9286 93.7649 36.9057 93.5817 36.5165L92.6889 34.2957H86.1869L85.2711 36.5165C85.088 36.9286 83.8746 36.9286 82.6383 36.9286C81.5394 36.9286 80.4404 36.9286 80.4404 36.4478ZM87.7437 30.7471H91.155L89.4379 26.7864L87.7437 30.7471Z" fill="#344E3E"/>
<path d="M100.015 36.4479V19.6206C100.015 19.094 101.091 19.094 102.213 19.094C103.311 19.094 104.387 19.094 104.387 19.6206V32.6016L111.965 32.6245C112.515 32.6245 112.515 33.6777 112.515 34.7308C112.515 35.7839 112.515 36.8371 111.943 36.8371H100.358C100.152 36.8142 100.015 36.6539 100.015 36.4479Z" fill="#344E3E"/>
<path d="M119.544 36.4479V19.5748C119.544 19.3688 119.704 19.2085 119.887 19.2085H125.703C128.358 19.2085 131.22 20.6966 131.22 23.9476C131.22 24.8863 130.831 26.0768 130.007 26.672C131.518 27.3589 132.777 29.1904 132.777 31.0219C132.777 35.3032 129.549 36.8142 126.435 36.8142H119.91C119.704 36.8142 119.544 36.6539 119.544 36.4479ZM126.939 24.4055C126.939 23.7187 126.389 23.1692 125.725 23.1692H123.917V25.6418H125.725C126.389 25.6418 126.939 25.0923 126.939 24.4055ZM127.992 30.9762C127.992 29.9459 127.191 29.3507 126.137 29.3507H123.917V32.6017H126.137C127.191 32.5788 127.992 31.9835 127.992 30.9762Z" fill="#344E3E"/>
<path d="M135.41 36.4478V19.5747C135.41 19.3687 135.57 19.2084 135.754 19.2084L147.361 19.1855C147.91 19.1855 147.91 20.2387 147.91 21.2918C147.91 22.3679 147.888 23.421 147.361 23.421H139.783V25.8707H146.056C146.583 25.8707 146.583 26.8093 146.583 27.7251C146.583 28.6638 146.56 29.5796 146.056 29.5796H139.783V32.5787L147.361 32.5558C147.91 32.5558 147.933 33.6089 147.933 34.685C147.933 35.7381 147.91 36.7913 147.384 36.7913H135.776C135.57 36.8141 135.41 36.6539 135.41 36.4478Z" fill="#344E3E"/>
<path d="M164.738 36.9286L155.122 27.6335V36.402C155.122 36.9286 154.046 36.9286 152.947 36.9286C151.848 36.9286 150.772 36.9286 150.772 36.402V19.3C150.772 18.9108 151.07 18.9108 151.391 18.9108C151.688 18.9108 152.009 18.9108 152.192 19.071L161.785 28.5722V19.5976C161.785 19.071 162.861 19.071 163.96 19.071C165.058 19.071 166.157 19.071 166.157 19.5976V36.6996C166.157 37.0888 165.86 37.0888 165.539 37.0888C165.242 37.1117 164.921 37.1117 164.738 36.9286Z" fill="#344E3E"/>
<path d="M168.698 34.5247C168.629 34.456 168.606 34.3644 168.606 34.2728C168.606 33.8607 169.019 33.2655 169.454 32.6702C169.98 31.9605 170.552 31.2737 170.942 31.2737C171.01 31.2737 171.056 31.2966 171.102 31.3423C171.88 32.0292 173.575 32.8992 174.994 32.8992C176.597 32.8992 177.238 32.3726 177.238 31.7316C177.238 30.976 176.162 30.5182 174.902 29.9916C172.659 29.0758 169.408 27.7022 169.408 24.3596C169.408 21.246 172.063 18.9565 176.07 18.9565C178.451 18.9565 180.58 19.7807 181.794 20.8339C181.862 20.9026 181.885 21.017 181.885 21.1315C181.885 21.5436 181.542 22.2075 181.175 22.7799C180.672 23.5583 180.099 24.3367 179.619 24.3367C179.527 24.3367 179.435 24.3138 179.367 24.268C178.634 23.7186 177.283 23.2149 176.07 23.2149C174.719 23.2149 174.147 23.6499 174.147 24.2451C174.147 24.8862 175.108 25.2525 176.276 25.7333C178.543 26.649 182 28.0456 182 31.7316C182 34.8452 178.932 37.1117 174.994 37.1117C172.567 37.0888 170.072 36.1044 168.698 34.5247Z" fill="#344E3E"/>
<path d="M42.1618 73.2388C44.2607 73.2388 45.9622 71.5373 45.9622 69.4384C45.9622 67.3395 44.2607 65.6379 42.1618 65.6379C40.0628 65.6379 38.3613 67.3395 38.3613 69.4384C38.3613 71.5373 40.0628 73.2388 42.1618 73.2388Z" fill="#DA4E4A"/>
<path d="M33.8964 67.2634C36.0585 67.2634 37.8113 65.5107 37.8113 63.3485C37.8113 61.1864 36.0585 59.4336 33.8964 59.4336C31.7342 59.4336 29.9814 61.1864 29.9814 63.3485C29.9814 65.5107 31.7342 67.2634 33.8964 67.2634Z" fill="#DA4E4A"/>
<path d="M26.1817 60.189C28.4071 60.189 30.2111 58.385 30.2111 56.1596C30.2111 53.9343 28.4071 52.1302 26.1817 52.1302C23.9564 52.1302 22.1523 53.9343 22.1523 56.1596C22.1523 58.385 23.9564 60.189 26.1817 60.189Z" fill="#DA4E4A"/>
<path d="M18.9933 52.4737C21.2186 52.4737 23.0227 50.6697 23.0227 48.4443C23.0227 46.2189 21.2186 44.4149 18.9933 44.4149C16.7679 44.4149 14.9639 46.2189 14.9639 48.4443C14.9639 50.6697 16.7679 52.4737 18.9933 52.4737Z" fill="#DA4E4A"/>
<path d="M13.2458 43.9798C15.2309 43.9798 16.8402 42.3706 16.8402 40.3854C16.8402 38.4003 15.2309 36.791 13.2458 36.791C11.2606 36.791 9.65137 38.4003 9.65137 40.3854C9.65137 42.3706 11.2606 43.9798 13.2458 43.9798Z" fill="#DA4E4A"/>
<path d="M8.07282 35.8296C9.96944 35.8296 11.507 34.2921 11.507 32.3954C11.507 30.4988 9.96944 28.9613 8.07282 28.9613C6.17619 28.9613 4.63867 30.4988 4.63867 32.3954C4.63867 34.2921 6.17619 35.8296 8.07282 35.8296Z" fill="#DA4E4A"/>
<path d="M4.63824 27.7936C6.53487 27.7936 8.07239 26.2561 8.07239 24.3594C8.07239 22.4628 6.53487 20.9253 4.63824 20.9253C2.74162 20.9253 1.2041 22.4628 1.2041 24.3594C1.2041 26.2561 2.74162 27.7936 4.63824 27.7936Z" fill="#DA4E4A"/>
<path d="M3.08118 18.9794C4.73757 18.9794 6.08033 17.6366 6.08033 15.9802C6.08033 14.3238 4.73757 12.9811 3.08118 12.9811C1.4248 12.9811 0.0820312 14.3238 0.0820312 15.9802C0.0820312 17.6366 1.4248 18.9794 3.08118 18.9794Z" fill="#DA4E4A"/>
<path d="M4.27129 11.1037C5.77595 11.1037 6.99572 9.88398 6.99572 8.37933C6.99572 6.87467 5.77595 5.65491 4.27129 5.65491C2.76664 5.65491 1.54688 6.87467 1.54688 8.37933C1.54688 9.88398 2.76664 11.1037 4.27129 11.1037Z" fill="#DA4E4A"/>
<path d="M9.37665 6.20436C10.9066 6.20436 12.1469 4.96409 12.1469 3.43415C12.1469 1.90421 10.9066 0.66394 9.37665 0.66394C7.84671 0.66394 6.60645 1.90421 6.60645 3.43415C6.60645 4.96409 7.84671 6.20436 9.37665 6.20436Z" fill="#DA4E4A"/>
<path d="M15.8566 4.76201C17.1716 4.76201 18.2376 3.696 18.2376 2.38101C18.2376 1.06601 17.1716 0 15.8566 0C14.5416 0 13.4756 1.06601 13.4756 2.38101C13.4756 3.696 14.5416 4.76201 15.8566 4.76201Z" fill="#DA4E4A"/>
<path d="M21.7852 5.38021C23.0117 5.38021 24.0059 4.38595 24.0059 3.15947C24.0059 1.93298 23.0117 0.938721 21.7852 0.938721C20.5587 0.938721 19.5645 1.93298 19.5645 3.15947C19.5645 4.38595 20.5587 5.38021 21.7852 5.38021Z" fill="#DA4E4A"/>
<path d="M26.6167 6.61633C27.6282 6.61633 28.4482 5.79632 28.4482 4.78479C28.4482 3.77326 27.6282 2.95325 26.6167 2.95325C25.6052 2.95325 24.7852 3.77326 24.7852 4.78479C24.7852 5.79632 25.6052 6.61633 26.6167 6.61633Z" fill="#DA4E4A"/>
<path d="M30.8755 7.92141C31.6594 7.92141 32.2949 7.2859 32.2949 6.50197C32.2949 5.71803 31.6594 5.08252 30.8755 5.08252C30.0916 5.08252 29.4561 5.71803 29.4561 6.50197C29.4561 7.2859 30.0916 7.92141 30.8755 7.92141Z" fill="#DA4E4A"/>
<path d="M34.1255 9.36381C34.7956 9.36381 35.3389 8.82055 35.3389 8.15041C35.3389 7.48027 34.7956 6.93701 34.1255 6.93701C33.4554 6.93701 32.9121 7.48027 32.9121 8.15041C32.9121 8.82055 33.4554 9.36381 34.1255 9.36381Z" fill="#DA4E4A"/>
<path d="M36.7822 10.6916C37.3512 10.6916 37.8124 10.2303 37.8124 9.66135C37.8124 9.09236 37.3512 8.6311 36.7822 8.6311C36.2132 8.6311 35.752 9.09236 35.752 9.66135C35.752 10.2303 36.2132 10.6916 36.7822 10.6916Z" fill="#DA4E4A"/>
<path d="M38.865 11.6074C39.257 11.6074 39.5747 11.2897 39.5747 10.8977C39.5747 10.5057 39.257 10.188 38.865 10.188C38.473 10.188 38.1553 10.5057 38.1553 10.8977C38.1553 11.2897 38.473 11.6074 38.865 11.6074Z" fill="#DA4E4A"/>
<path d="M40.4442 12.4543C40.6971 12.4543 40.9021 12.2493 40.9021 11.9965C40.9021 11.7436 40.6971 11.5386 40.4442 11.5386C40.1913 11.5386 39.9863 11.7436 39.9863 11.9965C39.9863 12.2493 40.1913 12.4543 40.4442 12.4543Z" fill="#DA4E4A"/>
<path d="M41.704 13.0498C41.8431 13.0498 41.9558 12.9371 41.9558 12.798C41.9558 12.6589 41.8431 12.5461 41.704 12.5461C41.5649 12.5461 41.4521 12.6589 41.4521 12.798C41.4521 12.9371 41.5649 13.0498 41.704 13.0498Z" fill="#DA4E4A"/>
<path d="M66.5894 84.5714C68.486 84.5714 70.0236 83.0339 70.0236 81.1373C70.0236 79.2406 68.486 77.7031 66.5894 77.7031C64.6928 77.7031 63.1553 79.2406 63.1553 81.1373C63.1553 83.0339 64.6928 84.5714 66.5894 84.5714Z" fill="#DA4E4A"/>
<path d="M75.0831 83.4724C76.7395 83.4724 78.0823 82.1297 78.0823 80.4733C78.0823 78.8169 76.7395 77.4741 75.0831 77.4741C73.4268 77.4741 72.084 78.8169 72.084 80.4733C72.084 82.1297 73.4268 83.4724 75.0831 83.4724Z" fill="#DA4E4A"/>
<path d="M82.1131 80.0613C83.6177 80.0613 84.8375 78.8415 84.8375 77.3368C84.8375 75.8322 83.6177 74.6124 82.1131 74.6124C80.6084 74.6124 79.3887 75.8322 79.3887 77.3368C79.3887 78.8415 80.6084 80.0613 82.1131 80.0613Z" fill="#DA4E4A"/>
<path d="M85.5466 73.8799C87.0765 73.8799 88.3168 72.6396 88.3168 71.1097C88.3168 69.5797 87.0765 68.3395 85.5466 68.3395C84.0166 68.3395 82.7764 69.5797 82.7764 71.1097C82.7764 72.6396 84.0166 73.8799 85.5466 73.8799Z" fill="#DA4E4A"/>
<path d="M84.8595 66.9659C86.1745 66.9659 87.2405 65.8999 87.2405 64.5849C87.2405 63.2699 86.1745 62.2039 84.8595 62.2039C83.5445 62.2039 82.4785 63.2699 82.4785 64.5849C82.4785 65.8999 83.5445 66.9659 84.8595 66.9659Z" fill="#DA4E4A"/>
<path d="M82.5704 61.2879C83.7968 61.2879 84.7911 60.2937 84.7911 59.0672C84.7911 57.8407 83.7968 56.8464 82.5704 56.8464C81.3439 56.8464 80.3496 57.8407 80.3496 59.0672C80.3496 60.2937 81.3439 61.2879 82.5704 61.2879Z" fill="#DA4E4A"/>
<path d="M50.2662 77.8176C52.1628 77.8176 53.7003 76.2801 53.7003 74.3835C53.7003 72.4869 52.1628 70.9493 50.2662 70.9493C48.3695 70.9493 46.832 72.4869 46.832 74.3835C46.832 76.2801 48.3695 77.8176 50.2662 77.8176Z" fill="#DA4E4A"/>
<path d="M58.2105 81.229C60.1071 81.229 61.6447 79.6915 61.6447 77.7949C61.6447 75.8982 60.1071 74.3607 58.2105 74.3607C56.3139 74.3607 54.7764 75.8982 54.7764 77.7949C54.7764 79.6915 56.3139 81.229 58.2105 81.229Z" fill="#DA4E4A"/>
<path d="M66.4302 84.6631C68.3269 84.6631 69.8644 83.1256 69.8644 81.2289C69.8644 79.3323 68.3269 77.7948 66.4302 77.7948C64.5336 77.7948 62.9961 79.3323 62.9961 81.2289C62.9961 83.1256 64.5336 84.6631 66.4302 84.6631Z" fill="#DA4E4A"/>
<path d="M127.695 48.5129C128.959 48.5129 129.984 47.4879 129.984 46.2235C129.984 44.9591 128.959 43.9341 127.695 43.9341C126.43 43.9341 125.405 44.9591 125.405 46.2235C125.405 47.4879 126.43 48.5129 127.695 48.5129Z" fill="#9EC8A1"/>
<path d="M135.318 48.3299C136.481 48.3299 137.424 47.3868 137.424 46.2236C137.424 45.0603 136.481 44.1173 135.318 44.1173C134.155 44.1173 133.212 45.0603 133.212 46.2236C133.212 47.3868 134.155 48.3299 135.318 48.3299Z" fill="#9EC8A1"/>
<path d="M142.942 48.1237C143.992 48.1237 144.842 47.2729 144.842 46.2235C144.842 45.174 143.992 44.3232 142.942 44.3232C141.893 44.3232 141.042 45.174 141.042 46.2235C141.042 47.2729 141.893 48.1237 142.942 48.1237Z" fill="#9EC8A1"/>
<path d="M150.567 47.9406C151.515 47.9406 152.284 47.1719 152.284 46.2235C152.284 45.2752 151.515 44.5065 150.567 44.5065C149.618 44.5065 148.85 45.2752 148.85 46.2235C148.85 47.1719 149.618 47.9406 150.567 47.9406Z" fill="#9EC8A1"/>
<path d="M158.168 47.7574C159.015 47.7574 159.702 47.0707 159.702 46.2235C159.702 45.3763 159.015 44.6896 158.168 44.6896C157.321 44.6896 156.634 45.3763 156.634 46.2235C156.634 47.0707 157.321 47.7574 158.168 47.7574Z" fill="#9EC8A1"/>
<path d="M165.792 47.5515C166.525 47.5515 167.12 46.957 167.12 46.2236C167.12 45.4903 166.525 44.8958 165.792 44.8958C165.058 44.8958 164.464 45.4903 164.464 46.2236C164.464 46.957 165.058 47.5515 165.792 47.5515Z" fill="#9EC8A1"/>
<path d="M173.414 47.3683C174.046 47.3683 174.559 46.8558 174.559 46.2236C174.559 45.5914 174.046 45.0789 173.414 45.0789C172.782 45.0789 172.27 45.5914 172.27 46.2236C172.27 46.8558 172.782 47.3683 173.414 47.3683Z" fill="#9EC8A1"/>
<path d="M181.038 47.1851C181.569 47.1851 181.999 46.7546 181.999 46.2235C181.999 45.6925 181.569 45.262 181.038 45.262C180.507 45.262 180.076 45.6925 180.076 46.2235C180.076 46.7546 180.507 47.1851 181.038 47.1851Z" fill="#9EC8A1"/>
</svg>
